<svg height="1024" width="1024" xmlns="http://www.w3.org/2000/svg" xmlns:xlink="http://www.w3.org/1999/xlink"><linearGradient id="a" gradientTransform="scale(1 1.001095)" gradientUnits="userSpaceOnUse" x1="511.68015" x2="511.68015" y1="0" y2="1461.4401"><stop offset="0" stop-color="#80d347"/><stop offset="1" stop-color="#34690b"/></linearGradient><path d="m306.5625 0c-61.11154.14122183-100.12414 3.3611914-128.46875 8.875-13.34729 2.596416-24.82548 5.403256-34.6875 9.1875-18.90586 7.25454-31.60227 14.261878-46.15625 23.96875-24.235571 16.164072-43.973356 37.398442-59.375 61.34375-13.249087 20.59868-23.105734 42.92977-29.0625 75.09375-6.8466233 36.96882-8.76811568 85.73497-8.8125 140v404.1875c.18387102 32.53893.95500823 60.41958 3.46875 85.9375.8757813 8.89038 2.0021806 17.49997 3.34375 25.90625 2.7291509 17.10087 6.251934 30.62806 10.625 44.625.983104 3.14664 2.359591 6.01694 3.5625 8.90625 4.954414 11.90016 10.439482 22.61271 16.75 32.21875 7.482354 11.38984 16.587998 23.45871 26.6875 33.8125 11.282296 11.56636 22.143855 20.60203 34.21875 28.78125 7.75391 5.2523 15.16855 9.79672 23.65625 13.90625 3.34329 1.61873 6.79683 3.2578 10.46875 4.875 6.01057 2.6472 12.63989 5.2468 20.375 7.4375 16.33865 4.6274 37.84908 9.5012 66.6875 11.7813 22.79329 1.802 50.14436 2.935 84.1875 3.1562h402.15625c46.08078-.568 81.01718-1.102 108.25-3.9688 16.49236-1.736 30.13421-4.3593 41.71875-7.0937 16.74067-3.9514 29.21603-8.4517 39.90625-13.4375 11.9564-5.57632 21.81348-11.23667 32.1875-18.65625 7.94942-5.68549 15.04177-11.09225 21.90625-17.5 14.24436-13.29662 26.51313-28.27905 36.90625-44.4375 7.22594-11.23435 13.4668-24.0438 18.625-38.5625 8.4546-23.79642 13.9821-52.21252 16.125-85.84375 1.8231-28.61146 2.1595-52.60024 2.1875-86.125v-404.5625c0 4.74635-.01 9.5449-.031 14.4375v-21c-.1056-30.56372-.9065-58.12943-3.5-82.9375-1.4113-13.49969-3.8366-26.30964-5.9376-38.1875-3.6186-20.45841-10.1325-38.42517-17.31245-52.6875-2.12747-4.22606-3.91072-7.58173-5.78125-10.84375-1.49793-2.61224-3.03556-5.17122-4.875-8.125-1.96035-3.14791-3.88046-6.18626-6-9.1875-5.6804-8.043058-12.15875-15.919957-18.90645-23.1875-10.06513-10.840544-21.24696-21.003506-33.875-29.40625-18.04042-12.004162-33.3026-21.28689-61.6875-29.0625-12.90077-3.533968-28.68073-6.8921362-48.65625-9.25-27.33624-3.2267056-62.78019-4.29426872-111.25-4.375h-399.625zm717.4063 297.25c.01 2.18834.03 4.3426.031 6.5625l.0002-303.8125-.031 297.25z" fill="url(#a)"/><path d="m306.5625-.000002c-61.11154.141222-100.12414 3.361191-128.46875 8.875-13.34729 2.596416-24.82548 5.403256-34.6875 9.1875-18.90586 7.25454-31.60227 14.261878-46.15625 23.96875-24.23557 16.164072-43.97336 37.398442-59.375 61.343752-13.24909 20.59868-23.10573 42.92977-29.0625 75.09375-6.84662 36.96882-8.76812 85.73497-8.8125 140v404.1875c.18387 32.53893.95501 60.41958 3.46875 85.9375.87578 8.89038 2.00218 17.49997 3.34375 25.90625 2.72915 17.10087 6.25193 30.62806 10.625 44.625.9831 3.14664 2.35959 6.01694 3.5625 8.90625 4.95441 11.90016 10.43948 22.61271 16.75 32.21875 7.48235 11.38984 16.588 23.45871 26.6875 33.8125 11.2823 11.56636 22.14385 20.602 34.21875 28.7812 7.75391 5.2523 15.16855 9.7968 23.65625 13.9063 3.34329 1.6187 6.79683 3.2578 10.46875 4.875 6.01057 2.6472 12.63989 5.2468 20.375 7.4375 16.33865 4.6274 37.84908 9.5012 66.6875 11.7813 22.79329 1.802 50.14436 2.935 84.1875 3.1562h402.15625c46.08078-.568 81.01718-1.102 108.25-3.9688 16.49236-1.736 30.13421-4.3593 41.71875-7.0937 16.74067-3.9514 29.21603-8.4517 39.90623-13.4375 11.9564-5.5763 21.8135-11.2367 32.1875-18.6563 7.9494-5.6854 15.0418-11.0922 21.9063-17.49995 14.2443-13.29662 26.5131-28.27905 36.9062-44.4375 7.226-11.23435 13.46682-24.0438 18.62502-38.5625 8.4546-23.79642 13.9821-52.21252 16.125-85.84375 1.8231-28.61146 2.1595-52.60024 2.1875-86.125v-404.5625c0 4.74635-.01 9.5449-.031 14.4375v-21c-.1056-30.56372-.9065-58.12943-3.5-82.9375-1.4113-13.49969-3.8366-26.30964-5.9376-38.1875-3.6186-20.45841-10.1325-38.42517-17.31242-52.6875-2.1275-4.22606-3.9108-7.58173-5.7813-10.84375-1.4979-2.61224-3.0355-5.17122-4.875-8.125-1.9603-3.14791-3.8804-6.18626-6-9.1875-5.6804-8.04306-12.1587-15.91996-18.9064-23.1875-10.0652-10.840546-21.247-21.003508-33.875-29.406252-18.0405-12.004162-33.3026-21.28689-61.68753-29.0625-12.90077-3.533968-28.68073-6.892136-48.65625-9.25-27.33624-3.226706-62.78019-4.294269-111.25-4.375h-399.625zm717.4063 297.250002c.01 2.18834.03 4.3426.031 6.5625l.0002-303.812502-.031 297.250002z" fill="#faa"/><g><path d="m804.07227 621.17578c-103.63853 0-187.07227 83.4357-187.07227 187.07422v215.75h89.1875c46.0808-.568 81.0172-1.102 108.25-3.9688 16.4923-1.7359 30.13425-4.3593 41.71875-7.0937 16.7407-3.9514 29.21605-8.4517 39.90625-13.4375 11.9564-5.5763 21.8135-11.23665 32.1875-18.65625 7.9494-5.6855 15.04175-11.0922 21.90625-17.5 14.2444-13.29659 26.51315-28.27905 36.90625-44.4375 7.2259-11.23435 13.4668-24.0438 18.625-38.5625 8.4546-23.79642 13.9821-52.21252 16.125-85.84375 1.8231-28.61146 2.1595-52.60024 2.1875-86.125v-87.19922z" fill="#6cb6c4"/><path d="m931.25692 722.60738q1.08532 0 2.17063 2.89416 1.44708 2.5324 2.53239 6.1501 1.08531 3.61771 1.80885 7.23542.72355 3.6177.72355 5.06478v26.04749q0 1.44708-.36178 5.42656 0 3.97947-1.08531 8.32072-.72354 3.97948-2.89416 7.23541-2.17063 3.25594-5.78833 3.25594-6.1501 0-9.04427-2.5324-2.53239-2.89416-3.97947-6.87364-1.08531-4.34125-1.80886-9.04426-.72354-5.06479-2.53239-9.04427-1.80885-4.34125-5.78833-6.87364-3.61771-2.89416-11.21489-2.89416h-19.89738q-1.80885 0-3.97948.36177-2.17062.36177-3.97947 1.08531-2.17063.72354-4.34125 1.44708-7.59718 0-11.93843 5.06479-3.97948 4.70302-3.97948 11.93843v17.36499q0 2.89416-.36177 5.42656 0 2.17062 2.17063 4.34124l-1.80886 14.10906v58.60683q0 7.23542 1.08531 11.93843 1.08532 4.34125 2.89417 7.23542 1.80885 2.89416 3.97948 5.06478 2.17062 1.80886 3.97947 3.61771 5.42656 1.80885 9.76781 3.61771 4.34125 1.44708 10.49135 1.44708 10.85311 1.80885 16.27967 6.87364 5.42656 4.70302 5.78833 10.12958.36177 5.06479-3.97947 9.40603-4.34125 4.70302-13.02375 5.78833-3.25593 0-6.51187-1.08531-2.89416-1.08531-5.78833-1.80885-3.25593-.36177-7.23541-.36177-3.97948 0-8.32072-.36177-3.97948 0-7.95896-.72355-3.6177-.72354-6.51187-2.53239h-2.17062-32.19758q-2.17063 0-9.04427 1.80885-6.51187 2.17063-14.83259 2.17063-5.78833 0-10.49135-.36177-3.97948-.36177-8.32072-.72354-3.97948 0-5.42656 0-1.80886 0-2.89417 1.44708-1.08531 1.44708-7.23541 1.44708-.72354-.36177-1.44708-1.44708-.72354-.72354-1.08531-1.80886-.36177-.72354-.36177-2.53239 1.44708-3.97948 3.6177-7.95895 1.80885-3.25594 3.97948-6.87364 2.53239-3.61771 5.42656-6.51187 5.06479-1.80886 9.40603-3.25594 3.61771-1.44708 6.87364-2.53239 3.61771-1.08532 4.70302-1.08532l17.36499-3.97947q2.53239 0 3.97948-3.25594 1.44708-3.6177 2.17062-7.59718.72354-4.70302.72354-11.21489v-38.34768q0-1.44709 1.44708-5.06479l1.44709-2.89417v-46.30663q0-2.89417.36177-5.78833.72354-2.89417.72354-5.42656 0-1.08531-1.08531-3.25594-1.08532-2.17062-2.89417-4.34124-1.80885-2.17063-4.34125-3.61771-2.17062-1.80885-4.70301-1.80885h-40.15654q-7.59718 0-11.93843 2.89416-3.97948 2.5324-6.1501 6.87364-2.17062 3.97948-3.25593 9.04427-1.08532 4.70302-2.89417 9.04426-1.44708 3.97948-4.34125 6.87364-2.89416 2.5324-8.68249 2.5324-5.42656 0-7.95895-3.97948-2.17063-4.34125-2.17063-9.04426 0-1.44709.36177-4.34125.36177-3.25594.72354-6.51187.72354-3.25594 1.08532-6.1501.72354-2.89417.72354-3.97948l4.34124-17.36499q0-1.08531.36177-4.70301.72355-3.97948 1.80886-8.32073 1.44708-4.34125 3.25593-7.59718 1.80886-3.25594 4.34125-3.25594 4.70302 0 7.23541 1.80886 2.89417 1.80885 6.1501 3.97947 2.17063 1.80886 4.34125 2.89417 2.53239 1.08531 6.51187 1.08531 2.17062 0 6.51187-.72354 4.34125-1.08531 6.51187-1.08531h7.23541q1.08532.72354 2.5324 1.08531 1.44708 0 3.25593.36177 1.80886.36177 3.97948.36177h54.62736l9.76781-1.80885 10.12957 1.80885q7.59719 0 15.55614-.72354 8.32072-1.08531 15.55613-1.08531h17.36499q6.51187 0 11.57666-1.80886 5.06479-1.80885 8.6825-3.6177 3.97947-2.17063 6.1501-3.97948 2.53239-1.80885 3.6177-1.80885z" fill="#fff"/></g></svg>